<?xml version="1.0"?>
<svg width="448" height="512" xmlns="http://www.w3.org/2000/svg" xmlns:svg="http://www.w3.org/2000/svg" xmlns:se="http://svg-edit.googlecode.com" xmlns:xlink="http://www.w3.org/1999/xlink" class="svg-inline--fa fa-flask fa-w-14" data-icon="flask" data-prefix="fas">
 <g class="layer">
  <title>Layer 1</title>
  <path d="m436.942598,401.810937l-117.061353,-187.960087l0,-150.567497l7.990536,0c13.284266,0 23.971608,-10.669352 23.971608,-23.931258l0,-15.954172c0,-13.261905 -10.687342,-23.931258 -23.971608,-23.931258l-207.753938,0c-13.284266,0 -23.971608,10.669352 -23.971608,23.931258l0,15.954172c0,13.261905 10.687342,23.931258 23.971608,23.931258l7.990536,0l0,150.567497l-117.061353,187.960087c-29.265338,46.965093 4.494677,108.189228 60.028902,108.189228l305.837768,0c55.634107,0 89.29424,-61.323848 60.028902,-108.189228zm-362.870219,36.395455l112.067268,-197.034022c3.695623,-5.185106 5.793139,-11.566775 5.793139,-18.347298l0,-159.541719l63.924288,0l0,159.541719c0,6.880237 2.197397,13.162192 5.793139,18.347298l117.061353,195.039751l-304.639187,1.994271z" fill="currentColor" id="svg_1"/>
  <g id="svg_4"/>
  <use id="svg_6" transform="matrix(0.266667 0 0 0.266667 163 294)" x="0" xlink:href="#svg_5" y="0"/>
  <g id="svg_7"/>
 </g>
 <defs>
  <symbol class="svg-inline--fa fa-terminal fa-w-20" data-icon="terminal" data-prefix="fas" id="svg_5" viewBox="0 0 640 512" xmlns="http://www.w3.org/2000/svg">
   <path d="m257.981,272.971l-194.343,194.343c-9.373,9.373 -24.569,9.373 -33.941,0l-22.668,-22.667c-9.357,-9.357 -9.375,-24.522 -0.04,-33.901l154.022,-154.746l-154.021,-154.745c-9.335,-9.379 -9.317,-24.544 0.04,-33.901l22.667,-22.667c9.373,-9.373 24.569,-9.373 33.941,0l194.343,194.343c9.373,9.372 9.373,24.568 0,33.941zm382.019,183.029l0,-32c0,-13.255 -10.745,-24 -24,-24l-304,0c-13.255,0 -24,10.745 -24,24l0,32c0,13.255 10.745,24 24,24l304,0c13.255,0 24,-10.745 24,-24z" fill="currentColor"/>
  </symbol>
 </defs>
</svg>