<?xml version="1.0"?>
<svg width="920" height="680" xmlns="http://www.w3.org/2000/svg" xmlns:svg="http://www.w3.org/2000/svg" xmlns:se="http://svg-edit.googlecode.com" xmlns:xlink="http://www.w3.org/1999/xlink" class="svg-inline--fa fa-flask fa-w-14" data-icon="flask" data-prefix="fas">
 <g class="layer">
  <title>Layer 1</title>
  <rect fill="#00ff7f" height="681.000057" id="svg_8" width="919.000026" x="0.499974" y="-0.500057"/>
  <path d="m642.008299,386.307039l-100.05673,-154.088991l0,-123.434683l6.829814,0c11.354563,0 20.489433,-8.746694 20.489433,-19.618751l0,-13.079178c0,-10.872057 -9.13487,-19.618751 -20.489433,-19.618751l-177.575075,0c-11.354555,0 -20.489433,8.746694 -20.489433,19.618751l0,13.079178c0,10.872057 9.134878,19.618751 20.489433,19.618751l6.829814,0l0,123.434683l-100.056721,154.088991c-25.014182,38.501808 3.841763,88.693133 51.30895,88.693133l261.410999,0c47.552549,0 76.323132,-50.273067 51.30895,-88.693133zm-310.15877,29.836856l95.788094,-161.527765c3.158785,-4.250734 4.951614,-9.482396 4.951614,-15.041049l0,-130.791716l54.638477,0l0,130.791716c0,5.640395 1.8782,10.790315 4.951614,15.041049l100.05673,159.89287l-260.386528,1.634895z" fill="currentColor" id="svg_1"/>
  <g id="svg_4"/>
  <use id="svg_6" transform="matrix(0.164146 0 0 0.154251 194.471 334.883)" x="1203.342328" xlink:href="#svg_5" y="-173.350203"/>
  <g id="svg_7"/>
  <text fill="#000000" font-family="Monospace" font-size="43" font-weight="bold" id="svg_3" stroke-width="0" text-anchor="middle" x="460" xml:space="preserve" y="578.5">Exlore your Gists</text>
 </g>
 <defs>
  <symbol class="svg-inline--fa fa-terminal fa-w-20" data-icon="terminal" data-prefix="fas" id="svg_5" viewBox="0 0 640 512" xmlns="http://www.w3.org/2000/svg">
   <path d="m257.981,272.971l-194.343,194.343c-9.373,9.373 -24.569,9.373 -33.941,0l-22.668,-22.667c-9.357,-9.357 -9.375,-24.522 -0.04,-33.901l154.022,-154.746l-154.021,-154.745c-9.335,-9.379 -9.317,-24.544 0.04,-33.901l22.667,-22.667c9.373,-9.373 24.569,-9.373 33.941,0l194.343,194.343c9.373,9.372 9.373,24.568 0,33.941zm382.019,183.029l0,-32c0,-13.255 -10.745,-24 -24,-24l-304,0c-13.255,0 -24,10.745 -24,24l0,32c0,13.255 10.745,24 24,24l304,0c13.255,0 24,-10.745 24,-24z" fill="currentColor" id="svg_2"/>
  </symbol>
 </defs>
</svg>