<?xml version="1.0"?>
<svg width="440" height="280" xmlns="http://www.w3.org/2000/svg" xmlns:svg="http://www.w3.org/2000/svg" xmlns:se="http://svg-edit.googlecode.com" xmlns:xlink="http://www.w3.org/1999/xlink" class="svg-inline--fa fa-flask fa-w-14" data-icon="flask" data-prefix="fas">
 <g class="layer">
  <title>Layer 1</title>
  <rect fill="#00ff7f" height="279.000018" id="svg_16" width="438.000028" x="0.999996" y="0.499979"/>
  <g id="svg_4"/>
  <g id="svg_7"/>
  <g id="svg_9">
   <use id="svg_3" transform="matrix(0.128407 0 0 0.129294 146.739 126.905)" x="372.945685" xlink:href="#svg_5" y="242.597301"/>
   <path d="m326.538099,210.544327l-56.367903,-91.132934l0,-73.003041l3.84764,0c6.3967,0 11.542916,-5.173062 11.542916,-11.603128l0,-7.735425c0,-6.430066 -5.146215,-11.603128 -11.542916,-11.603128l-100.038595,0c-6.396696,0 -11.542916,5.173062 -11.542916,11.603128l0,7.735425c0,6.430066 5.14622,11.603128 11.542916,11.603128l3.84764,0l0,73.003041l-56.367899,91.132934c-14.091976,22.771145 2.164293,52.455827 28.905381,52.455827l147.268355,0c26.789178,0 42.997357,-29.733027 28.905381,-52.455827zm-174.730872,17.646428l53.963127,-95.532453c1.779531,-2.514014 2.789538,-5.608178 2.789538,-8.895736l0,-77.354214l30.781102,0l0,77.354214c0,3.335902 1.058102,6.381722 2.789538,8.895736l56.367903,94.565526l-146.691209,0.966927z" fill="currentColor" id="svg_8"/>
  </g>
 </g>
 <defs>
  <symbol class="svg-inline--fa fa-terminal fa-w-20" data-icon="terminal" data-prefix="fas" id="svg_5" viewBox="0 0 640 512" xmlns="http://www.w3.org/2000/svg">
   <path d="m257.981,272.971l-194.343,194.343c-9.373,9.373 -24.569,9.373 -33.941,0l-22.668,-22.667c-9.357,-9.357 -9.375,-24.522 -0.04,-33.901l154.022,-154.746l-154.021,-154.745c-9.335,-9.379 -9.317,-24.544 0.04,-33.901l22.667,-22.667c9.373,-9.373 24.569,-9.373 33.941,0l194.343,194.343c9.373,9.372 9.373,24.568 0,33.941zm382.019,183.029l0,-32c0,-13.255 -10.745,-24 -24,-24l-304,0c-13.255,0 -24,10.745 -24,24l0,32c0,13.255 10.745,24 24,24l304,0c13.255,0 24,-10.745 24,-24z" fill="currentColor" id="svg_2"/>
  </symbol>
 </defs>
</svg>